<svg xmlns="http://www.w3.org/2000/svg" xmlns:xlink="http://www.w3.org/1999/xlink" width="136" height="16" viewBox="0 0 136 16">
  <g>
    <path d="M135.415,15.273 C135.415,15.273 131.062,15.273 131.062,15.273 C131.062,15.273 127.727,9.412 127.727,9.412 C127.727,9.412 126.291,11.435 126.291,11.435 C126.291,11.435 126.291,15.273 126.291,15.273 C126.291,15.273 122.308,15.273 122.308,15.273 C122.308,15.273 122.308,0.214 122.308,0.214 C122.308,0.214 126.291,0.214 126.291,0.214 C126.291,0.214 126.291,5.778 126.291,5.778 C126.291,5.778 126.384,5.778 126.384,5.778 C126.384,5.778 130.182,0.214 130.182,0.214 C130.182,0.214 134.535,0.214 134.535,0.214 C134.535,0.214 130.043,6.284 130.043,6.284 C130.043,6.284 135.415,15.273 135.415,15.273 ZM118.082,13.367 C117.411,13.980 116.615,14.546 115.697,14.837 C114.778,15.128 113.779,15.273 112.698,15.273 C112.698,15.273 108.020,15.273 108.020,15.273 C108.020,15.273 108.020,0.214 108.020,0.214 C108.020,0.214 112.467,0.214 112.467,0.214 C113.609,0.214 114.654,0.352 115.604,0.628 C116.554,0.904 117.368,1.340 118.048,1.938 C118.727,2.536 119.255,3.303 119.634,4.238 C120.012,5.173 120.201,6.300 120.201,7.618 C120.201,8.937 120.016,10.071 119.645,11.021 C119.275,11.972 118.754,12.753 118.082,13.367 ZM115.825,5.480 C115.624,4.928 115.350,4.499 115.002,4.192 C114.654,3.885 114.242,3.674 113.764,3.560 C113.285,3.445 112.776,3.387 112.235,3.387 C112.235,3.387 112.004,3.387 112.004,3.387 C112.004,3.387 112.004,11.987 112.004,11.987 C112.004,11.987 112.235,11.987 112.235,11.987 C112.776,11.987 113.285,11.922 113.764,11.792 C114.242,11.661 114.654,11.435 115.002,11.113 C115.350,10.791 115.624,10.347 115.825,9.779 C116.025,9.213 116.125,8.492 116.125,7.618 C116.125,6.744 116.025,6.031 115.825,5.480 Z" id="logo-dk"></path>
    <path d="M105.896,15.273 C105.896,15.273 101.543,15.273 101.543,15.273 C101.543,15.273 98.208,9.412 98.208,9.412 C98.208,9.412 96.773,11.435 96.773,11.435 C96.773,11.435 96.773,15.273 96.773,15.273 C96.773,15.273 92.789,15.273 92.789,15.273 C92.789,15.273 92.789,0.214 92.789,0.214 C92.789,0.214 96.773,0.214 96.773,0.214 C96.773,0.214 96.773,5.778 96.773,5.778 C96.773,5.778 96.865,5.778 96.865,5.778 C96.865,5.778 100.663,0.214 100.663,0.214 C100.663,0.214 105.017,0.214 105.017,0.214 C105.017,0.214 100.524,6.284 100.524,6.284 C100.524,6.284 105.896,15.273 105.896,15.273 ZM80.620,0.214 C80.620,0.214 90.156,0.214 90.156,0.214 C90.156,0.214 90.156,3.525 90.156,3.525 C90.156,3.525 84.476,3.525 84.476,3.525 C84.476,3.525 84.476,5.870 84.476,5.870 C84.476,5.870 89.194,5.870 89.194,5.870 C89.194,5.870 89.194,9.181 89.194,9.181 C89.194,9.181 84.476,9.181 84.476,9.181 C84.476,9.181 84.476,11.849 84.476,11.849 C84.476,11.849 90.451,11.849 90.451,11.849 C90.451,11.849 90.451,15.273 90.451,15.273 C90.451,15.273 80.620,15.273 80.620,15.273 C80.620,15.273 80.620,0.214 80.620,0.214 ZM74.930,15.273 C74.930,15.273 70.819,15.273 70.819,15.273 C70.819,15.273 70.819,3.525 70.819,3.525 C70.819,3.525 66.581,3.525 66.581,3.525 C66.581,3.525 66.581,0.214 66.581,0.214 C66.581,0.214 78.697,0.214 78.697,0.214 C78.697,0.214 78.697,3.525 78.697,3.525 C78.697,3.525 74.930,3.525 74.930,3.525 C74.930,3.525 74.930,15.273 74.930,15.273 ZM58.821,15.382 C56.915,15.382 55.524,15.339 54.689,14.914 C52.698,13.915 52.527,10.769 52.527,7.687 C52.527,4.668 52.677,1.501 54.689,0.460 C55.481,0.055 56.722,-0.008 58.821,-0.008 C60.897,-0.008 62.246,0.098 62.952,0.460 C64.687,1.352 65.115,3.861 65.115,7.687 C65.115,11.364 64.751,13.979 62.952,14.914 C62.310,15.233 61.283,15.382 58.821,15.382 ZM60.812,5.115 C60.683,3.500 60.576,3.266 58.821,3.266 C57.066,3.266 56.958,3.500 56.830,5.115 C56.744,6.071 56.722,7.198 56.722,7.687 C56.722,8.176 56.744,9.303 56.830,10.259 C56.958,11.874 57.066,12.108 58.821,12.108 C60.576,12.108 60.683,11.874 60.812,10.259 C60.897,9.303 60.919,8.176 60.919,7.687 C60.919,7.198 60.897,6.071 60.812,5.115 ZM45.592,0.214 C45.592,0.214 49.576,0.214 49.576,0.214 C49.576,0.214 49.576,15.273 49.576,15.273 C49.576,15.273 45.592,15.273 45.592,15.273 C45.592,15.273 45.592,0.214 45.592,0.214 ZM33.770,0.214 C33.770,0.214 37.753,0.214 37.753,0.214 C37.753,0.214 37.753,11.849 37.753,11.849 C37.753,11.849 43.578,11.849 43.578,11.849 C43.578,11.849 43.578,15.273 43.578,15.273 C43.578,15.273 33.770,15.273 33.770,15.273 C33.770,15.273 33.770,0.214 33.770,0.214 ZM31.061,8.411 C31.593,8.971 31.859,9.749 31.859,10.745 C31.859,11.512 31.701,12.175 31.385,12.734 C31.068,13.294 30.644,13.867 30.111,14.227 C29.579,14.588 28.949,14.852 28.224,15.021 C27.498,15.190 26.734,15.273 25.931,15.273 C25.931,15.273 20.049,15.273 20.049,15.273 C20.049,15.273 20.049,0.214 20.049,0.214 C20.049,0.214 25.468,0.214 25.468,0.214 C26.255,0.214 26.997,0.271 27.691,0.386 C28.386,0.501 28.988,0.697 29.498,0.973 C30.007,1.248 30.412,1.628 30.713,2.111 C31.014,2.594 31.165,3.203 31.165,3.939 C31.165,4.261 31.119,4.587 31.026,4.916 C30.933,5.246 30.783,5.560 30.574,5.859 C30.366,6.158 30.104,6.422 29.787,6.652 C29.471,6.882 29.096,7.051 28.664,7.158 C28.664,7.158 28.664,7.250 28.664,7.250 C29.729,7.465 30.528,7.852 31.061,8.411 ZM26.812,3.548 C26.502,3.349 26.024,3.249 25.376,3.249 C25.376,3.249 24.032,3.249 24.032,3.249 C24.032,3.249 24.032,6.100 24.032,6.100 C24.032,6.100 25.376,6.100 25.376,6.100 C26.024,6.100 26.502,5.955 26.812,5.663 C27.120,5.372 27.275,4.996 27.275,4.537 C27.275,4.077 27.120,3.747 26.812,3.548 ZM27.402,9.227 C27.024,8.983 26.441,8.860 25.653,8.860 C25.653,8.860 24.032,8.860 24.032,8.860 C24.032,8.860 24.032,12.125 24.032,12.125 C24.032,12.125 25.653,12.125 25.653,12.125 C27.197,12.125 27.969,11.558 27.969,10.423 C27.969,9.872 27.780,9.473 27.402,9.227 ZM13.757,0.214 C13.757,0.214 17.740,0.214 17.740,0.214 C17.740,0.214 17.740,15.273 17.740,15.273 C17.740,15.273 13.757,15.273 13.757,15.273 C13.757,15.273 13.757,0.214 13.757,0.214 ZM11.016,8.411 C11.548,8.971 11.814,9.749 11.814,10.745 C11.814,11.512 11.656,12.175 11.340,12.734 C11.023,13.294 10.599,13.867 10.066,14.227 C9.534,14.588 8.904,14.852 8.179,15.021 C7.453,15.190 6.689,15.273 5.886,15.273 C5.886,15.273 0.004,15.273 0.004,15.273 C0.004,15.273 0.004,0.214 0.004,0.214 C0.004,0.214 5.423,0.214 5.423,0.214 C6.210,0.214 6.951,0.271 7.646,0.386 C8.341,0.501 8.943,0.697 9.453,0.973 C9.962,1.248 10.367,1.628 10.668,2.111 C10.969,2.594 11.120,3.203 11.120,3.939 C11.120,4.261 11.074,4.587 10.981,4.916 C10.888,5.246 10.738,5.560 10.529,5.859 C10.321,6.158 10.058,6.422 9.742,6.652 C9.425,6.882 9.051,7.051 8.619,7.158 C8.619,7.158 8.619,7.250 8.619,7.250 C9.684,7.465 10.483,7.852 11.016,8.411 ZM6.766,3.548 C6.457,3.349 5.979,3.249 5.330,3.249 C5.330,3.249 3.987,3.249 3.987,3.249 C3.987,3.249 3.987,6.100 3.987,6.100 C3.987,6.100 5.330,6.100 5.330,6.100 C5.979,6.100 6.457,5.955 6.766,5.663 C7.075,5.372 7.229,4.996 7.229,4.537 C7.229,4.077 7.075,3.747 6.766,3.548 ZM7.357,9.227 C6.978,8.983 6.396,8.860 5.608,8.860 C5.608,8.860 3.987,8.860 3.987,8.860 C3.987,8.860 3.987,12.125 3.987,12.125 C3.987,12.125 5.608,12.125 5.608,12.125 C7.152,12.125 7.924,11.558 7.924,10.423 C7.924,9.872 7.735,9.473 7.357,9.227 Z" id="logo-bibliotek"></path>
  </g>
</svg>
