<svg width="17px" height="17px" viewBox="0 0 17 17" version="1.1" xmlns="http://www.w3.org/2000/svg" xmlns:xlink="http://www.w3.org/1999/xlink">
  <g>
    <path d="M7.10542736e-15,15.057 L4.628,10.529 C4.003,9.517 3.336,8.266 3.327,6.708 C3.306,3.002 6.384,0.001 10.163,0 C13.938,0.001 16.998,3.002 16.998,6.708 C16.998,10.41 13.937,13.411 10.161,13.411 C8.865,13.411 7.658,13.051 6.626,12.438 L1.977,16.998 L7.10542736e-15,15.057 L7.10542736e-15,15.057 Z M14.39,6.708 C14.386,4.416 12.497,2.563 10.161,2.559 C7.827,2.564 5.936,4.416 5.933,6.708 C5.937,8.997 7.827,10.852 10.161,10.855 C12.497,10.852 14.387,8.997 14.39,6.708 L14.39,6.708 Z"></path>
  </g>
</svg>
