<svg width="17px" height="22px" viewBox="0 0 17 22" version="1.1" xmlns="http://www.w3.org/2000/svg" xmlns:xlink="http://www.w3.org/1999/xlink">
  <g>
    <path d="M15.7570116,1.93432097 C15.5800116,1.80032097 15.3540116,1.76932097 15.1550116,1.85432097 L5.53301164,5.92132097 C5.11401164,6.10032097 4.59101164,6.18532097 4.05201164,6.18532097 C3.30301164,6.18732097 2.52701164,6.01632097 1.98601164,5.78432097 C1.79201164,5.70332097 1.63101164,5.61432097 1.51701164,5.53232097 C1.55801164,5.51132097 1.60601164,5.49232097 1.66201164,5.46932097 L10.4160116,1.77132097 L11.7220116,2.31732097 L11.7220116,0.723320969 C11.7220116,0.485320969 11.6190116,0.261320969 11.4420116,0.128320969 C11.2650116,-0.00667903065 11.0380116,-0.0376790307 10.8410116,0.0473209693 L1.20901164,4.11532097 C0.913011636,4.23232097 0.658011636,4.37532097 0.441011636,4.58432097 C0.229011636,4.78632097 0.0460116365,5.12132097 0.0490116365,5.49232097 C0.0490116365,5.50132097 0.0520116365,5.51932097 0.0520116365,5.51932097 L0.0520116365,19.841321 C0.0520116365,19.847321 0.0500116365,19.853321 0.0500116365,19.860321 C0.0500116365,19.865321 0.0520116365,19.867321 0.0520116365,19.872321 L0.0520116365,19.887321 L0.0540116365,19.887321 C0.0750116365,20.394321 0.333011636,20.718321 0.580011636,20.931321 C1.35701164,21.601321 2.66301164,21.975321 4.05001164,22.005321 C4.70801164,22.005321 5.37601164,21.904321 5.99201164,21.649321 L15.6170116,17.577321 C15.8720116,17.476321 16.0370116,17.205321 16.0370116,16.908321 L16.0370116,2.53032097 C16.0370116,2.29332097 15.9320116,2.06832097 15.7570116,1.93432097 L15.7570116,1.93432097 Z"></path>
  </g>
</svg>
