<svg width="21px" height="22px" viewBox="0 0 21 22" version="1.1" xmlns="http://www.w3.org/2000/svg" xmlns:xlink="http://www.w3.org/1999/xlink">
  <g>
    <path d="M20.9766658,14.7341931 L20.9766658,0.197193102 C20.6036658,0.122193102 20.3016658,-0.0328068979 19.6236658,0.00619310207 L6.11466581,0.769193102 C5.43666581,0.807193102 4.94866581,1.4031931 4.94866581,2.0991931 L4.94866581,14.5401931 C4.57866581,14.4151931 4.12866581,14.3301931 3.71766581,14.3301931 C1.64966581,14.3301931 -0.0273341939,16.0511931 -0.0273341939,18.1741931 C-0.0273341939,20.2971931 1.64966581,22.0181931 3.71766581,22.0181931 C5.78566581,22.0181931 7.35366581,20.4831931 7.35366581,18.3601931 C7.35366581,18.0411931 7.03866581,17.3011931 6.96766581,17.0051931 L6.96766581,7.0031931 L18.9576658,6.3781931 L18.9576658,12.0191931 C18.5876658,11.8941931 17.6376658,11.8091931 17.2266658,11.8091931 C15.1586658,11.8091931 13.4816658,13.5301931 13.4816658,15.6531931 C13.4816658,17.7761931 15.1586658,19.4971931 17.2266658,19.4971931 C19.2946658,19.4971931 20.9716658,17.7761931 20.9716658,15.6531931 C20.9716658,15.3341931 21.0476658,15.0301931 20.9766658,14.7341931 L20.9766658,14.7341931 Z"></path>
  </g>
</svg>
