<svg width="21px" height="22px" viewBox="0 0 21 22" version="1.1" xmlns="http://www.w3.org/2000/svg" xmlns:xlink="http://www.w3.org/1999/xlink">
  <g>
    <path d="M0,0 L0,14.031 L9.002,14.031 L9.002,22 L20.006,22 L20.006,0 L0,0 L0,0 Z M9.002,10.994 L3.001,10.994 L3.001,9.957 L9.002,9.957 L9.002,10.994 L9.002,10.994 Z M9.002,8.983 L3.001,8.983 L3.001,8.008 L9.002,8.008 L9.002,8.983 L9.002,8.983 Z M17.005,18.976 L11.003,18.976 L11.003,18.002 L17.005,18.002 L17.005,18.976 L17.005,18.976 Z M17.005,17.027 L11.003,17.027 L11.003,15.991 L17.005,15.991 L17.005,17.027 L17.005,17.027 Z M17.005,15.016 L11.003,15.016 L11.003,13.979 L17.005,13.979 L17.005,15.016 L17.005,15.016 Z M17.005,13.005 L11.003,13.005 L11.003,12.03 L17.005,12.03 L17.005,13.005 L17.005,13.005 Z M17.005,10.994 L11.003,10.994 L11.003,10.019 L17.005,10.019 L17.005,10.994 L17.005,10.994 Z M17.005,8.983 L11.003,8.983 L11.003,8.008 L17.005,8.008 L17.005,8.983 L17.005,8.983 Z M17.005,5.997 L3.001,5.997 L3.001,2.986 L17.005,2.986 L17.005,5.997 L17.005,5.997 Z"></path>
  </g>
</svg>
