<svg width="20px" height="23px" viewBox="0 0 20 23" version="1.1" xmlns="http://www.w3.org/2000/svg" xmlns:xlink="http://www.w3.org/1999/xlink">
  <g>
    <path d="M17.019,0 L17.019,3.009 L14.003,3.009 L14.003,0 L5.986,0 L5.986,3.009 L3.001,3.009 L3.001,0 L0,0 L0,22.011 L2.982,22.011 L2.982,20.003 L5.966,20.003 L5.966,22.011 L13.984,22.011 L13.984,20.003 L17,20.003 L17,22.011 L19.988,22.011 L19.988,0 L17.019,0 L17.019,0 Z M5.966,17.995 L2.982,17.995 L2.982,14.987 L5.966,14.987 L5.966,17.995 L5.966,17.995 Z M5.986,12.979 L3.001,12.979 L3.001,10.033 L5.986,10.033 L5.986,12.979 L5.986,12.979 Z M5.986,8.025 L3.001,8.025 L3.001,5.017 L5.986,5.017 L5.986,8.025 L5.986,8.025 Z M17,17.995 L13.984,17.995 L13.984,14.987 L17,14.987 L17,17.995 L17,17.995 Z M17,12.979 L13.984,12.979 L13.984,10.033 L17,10.033 L17,12.979 L17,12.979 Z M17.019,8.025 L14.003,8.025 L14.003,5.017 L17.019,5.017 L17.019,8.025 L17.019,8.025 Z"></path>
  </g>
</svg>
