<svg width="22px" height="13px" viewBox="0 0 22 13" version="1.1" xmlns="http://www.w3.org/2000/svg" xmlns:xlink="http://www.w3.org/1999/xlink">
  <g>
    <path d="M21.9854537,6.25403392 C21.7304537,2.71103392 19.6494537,-0.18296608 17.0914537,0.00903392007 C17.0524537,0.0120339201 4.97445368,0.0250339201 4.63545368,0.0250339201 C3.80545368,0.0250339201 3.14145368,0.29803392 3.14145368,0.29803392 C1.31645368,1.07503392 0.216453681,3.50003392 0.0184536813,6.25403392 C-0.236546319,9.79803392 2.19245368,12.8260339 4.75145368,13.0180339 C6.95445368,13.1830339 9.47945368,11.8070339 10.1544537,8.98803392 L13.0064537,8.98803392 C13.6814537,11.8070339 15.6124537,13.1830339 17.8154537,13.0180339 C20.3744537,12.8260339 22.2414537,9.79803392 21.9854537,6.25403392 L21.9854537,6.25403392 Z M8.99845368,6.98803392 L6.97745368,6.98803392 L6.97745368,9.02803392 L4.99745368,9.02803392 L4.99745368,6.98803392 L3.00745368,6.98803392 L3.00745368,5.03203392 L4.99745368,5.03203392 L4.99745368,2.99203392 L6.97745368,2.99203392 L6.97745368,5.03203392 L8.99845368,5.03203392 L8.99845368,6.98803392 L8.99845368,6.98803392 Z M16.4794537,2.73303392 C16.9914537,2.73303392 17.4074537,3.15703392 17.4074537,3.67903392 C17.4074537,4.20203392 16.9914537,4.62603392 16.4794537,4.62603392 C15.9674537,4.62603392 15.5514537,4.20203392 15.5514537,3.67903392 C15.5514537,3.15703392 15.9674537,2.73303392 16.4794537,2.73303392 L16.4794537,2.73303392 Z M14.5954537,6.51903392 C14.0824537,6.51903392 13.6674537,6.09503392 13.6674537,5.57203392 C13.6674537,5.05003392 14.0824537,4.62603392 14.5954537,4.62603392 C15.1074537,4.62603392 15.5224537,5.05003392 15.5224537,5.57203392 C15.5224537,6.09503392 15.1074537,6.51903392 14.5954537,6.51903392 L14.5954537,6.51903392 Z M16.4794537,8.41203392 C15.9674537,8.41203392 15.5514537,7.98803392 15.5514537,7.46503392 C15.5514537,6.94203392 15.9674537,6.51903392 16.4794537,6.51903392 C16.9914537,6.51903392 17.4074537,6.94203392 17.4074537,7.46503392 C17.4074537,7.98803392 16.9914537,8.41203392 16.4794537,8.41203392 L16.4794537,8.41203392 Z M18.3344537,6.51903392 C17.8224537,6.51903392 17.4074537,6.09503392 17.4074537,5.57203392 C17.4074537,5.05003392 17.8224537,4.62603392 18.3344537,4.62603392 C18.8474537,4.62603392 19.2624537,5.05003392 19.2624537,5.57203392 C19.2624537,6.09503392 18.8474537,6.51903392 18.3344537,6.51903392 L18.3344537,6.51903392 Z"></path>
  </g>
</svg>
