<svg xmlns:rdf="http://www.w3.org/1999/02/22-rdf-syntax-ns#" xmlns="http://www.w3.org/2000/svg" height="19" width="19" version="1.1" xmlns:cc="http://creativecommons.org/ns#" xmlns:dc="http://purl.org/dc/elements/1.1/" viewBox="0 0 18.999999 18.999999">
 <g transform="translate(0 -1033.4)">
  <path stroke-width="0" d="m19.125 1042.9a9.5781 9.4531 0 0 1 -9.5442 9.4531 9.5781 9.4531 0 0 1 -9.6118 -9.3861 9.5781 9.4531 0 0 1 9.4761 -9.5196 9.5781 9.4531 0 0 1 9.679 9.3187"/>
 </g>
 <g fill="#fff" transform="matrix(.87497 0 0 1.4712 -.94705 -1.7808)">
  <path d="m4.4173 9.0098q0.028109 0.074958 0.10307 0.14992l0.14055 0.093697 0.15928 0.037479h3.5698v1.3399h-3.5698q-0.38416 0-0.67462-0.12181-0.2905-0.131-0.5623-0.394-0.2717-0.2619-0.4122-0.5805-0.0469-0.1406-0.075-0.2343-0.0562-0.2155-0.0562-0.4497v-2.2394q0-0.38416 0.12181-0.67462 0.1312-0.2904 0.4029-0.5809 0.2436-0.2436 0.5716-0.3842 0.1686-0.0749 0.3279-0.103 0.1593-0.0375 0.356-0.0375h3.5136v1.3399h-3.5136l-0.16865 0.028109q-0.074958 0.028109-0.14055 0.093697-0.065588 0.065588-0.093697 0.14055l-0.037479 0.17802v0.44974h3.7947v1.3399h-3.7947v0.44974q0 0.084327 0.037479 0.15928z"/>
  <path d="m8.8411 6.1708v-1.3399h5.7905v1.3399h-2.23v4.4693h-1.3399v-4.4693h-2.2206z"/>
  <path d="m16.88 10.631q-0.38416 0-0.67462-0.12181-0.29046-0.13118-0.56218-0.39353-0.272-0.2629-0.412-0.5815-0.047-0.1406-0.075-0.2343-0.056-0.2155-0.056-0.4497v-2.2394q0-0.38416 0.12181-0.67462 0.13118-0.29046 0.4029-0.58092 0.24361-0.24361 0.57155-0.38416 0.16866-0.074957 0.32794-0.10307 0.15928-0.037479 0.35605-0.037479h3.5698v1.3399h-3.5698l-0.07496 0.00937-0.07496 0.018739-0.07496 0.046848-0.07496 0.056218-0.10307 0.14055-0.03748 0.16865v2.2394l0.02811 0.16865 0.0937 0.14992q0.05622 0.056218 0.14054 0.084327l0.17802 0.037479h3.5698v1.3399h-3.5698z"/>
 </g>
</svg>
