<svg width="22px" height="19px" viewBox="0 0 22 19" version="1.1" xmlns="http://www.w3.org/2000/svg" xmlns:xlink="http://www.w3.org/1999/xlink">
  <g>
    <path d="M19.9260184,14.4372735 C19.6430184,14.7522735 19.1710184,14.7652735 18.8720184,14.4672735 C18.5730184,14.1682735 18.5610184,13.6712735 18.8430184,13.3572735 C21.0680184,10.8842735 21.0540184,7.05427347 18.8150184,4.82027347 C18.6600184,4.66527347 18.5820184,4.45827347 18.5820184,4.25027347 C18.5820184,4.05627347 18.6500184,3.86127347 18.7870184,3.71027347 C19.0700184,3.39527347 19.5420184,3.38127347 19.8410184,3.68027347 C22.6770184,6.51027347 22.7160184,11.3362735 19.9260184,14.4372735 L19.9260184,14.4372735 Z M18.0270184,11.9102735 C17.7440184,12.2252735 17.2720184,12.2392735 16.9730184,11.9402735 C16.6740184,11.6422735 16.6620184,11.1452735 16.9440184,10.8302735 C17.8550184,9.81827347 17.8560184,8.25527347 16.9460184,7.34627347 C16.7910184,7.19227347 16.7130184,6.98427347 16.7130184,6.77727347 C16.7130184,6.58327347 16.7810184,6.38827347 16.9170184,6.23627347 C17.2010184,5.92127347 17.6730184,5.90827347 17.9720184,6.20627347 C19.4790184,7.71127347 19.5040184,10.2702735 18.0270184,11.9102735 L18.0270184,11.9102735 Z M13.7000184,15.1802735 L5.23101844,18.6972735 C4.68801844,18.9172735 4.10001844,19.0052735 3.52101844,19.0052735 C2.30001844,18.9782735 1.15201844,18.6552735 0.468018437,18.0772735 C0.250018437,17.8922735 0.0230184369,17.6132735 0.0040184369,17.1752735 L0.0030184369,17.1752735 L0.0030184369,17.1622735 C0.0030184369,17.1582735 0.0010184369,17.1562735 0.0010184369,17.1522735 C0.0010184369,17.1462735 0.0030184369,17.1412735 0.0030184369,17.1362735 L0.0030184369,4.76627347 C0.0030184369,4.76627347 1.84368979e-05,4.75127347 1.84368979e-05,4.74327347 C-0.0019815631,4.42227347 0.159018437,4.13427347 0.345018437,3.95927347 C0.536018437,3.77827347 0.760018437,3.65527347 1.02101844,3.55427347 L9.49701844,0.0412734679 C9.67101844,-0.0327265321 9.87001844,-0.00572653214 10.0260184,0.110273468 C10.1820184,0.225273468 10.2730184,0.419273468 10.2730184,0.624273468 L10.2730184,2.00127347 L9.12301844,1.52927347 L1.42001844,4.72327347 C1.37101844,4.74327347 1.32801844,4.75927347 1.29201844,4.77727347 C1.39201844,4.84827347 1.53401844,4.92527347 1.70501844,4.99627347 C2.18101844,5.19627347 2.86401844,5.34327347 3.52301844,5.34227347 C3.99701844,5.34227347 4.45801844,5.26827347 4.82701844,5.11427347 L13.2930184,1.60127347 C13.4690184,1.52827347 13.6680184,1.55527347 13.8230184,1.67127347 C13.9770184,1.78627347 14.0700184,1.98127347 14.0700184,2.18527347 L14.0700184,14.6022735 C14.0700184,14.8592735 13.9240184,15.0932735 13.7000184,15.1802735 L13.7000184,15.1802735 Z"></path>
  </g>
</svg>
