<svg width="21px" height="21px" viewBox="0 0 21 21" version="1.1" xmlns="http://www.w3.org/2000/svg" xmlns:xlink="http://www.w3.org/1999/xlink">
  <g>
    <path d="M16.867,10.1667799 C16.714,5.24286685 14.623,1.27173913 12.179,0.0448369565 C17.033,0.851902174 20.76,5.04211957 20.958,10.1667799 L16.867,10.1667799 L16.867,10.1667799 Z M15.867,10.1667799 L10.979,10.1667799 L10.979,0.706182065 C13.396,1.125 15.696,5.22452446 15.867,10.1667799 L15.867,10.1667799 Z M5.018,11.1858016 L9.979,11.1858016 L9.979,20.9602582 C7.59,20.3529212 5.102,16.1555707 5.018,11.1858016 L5.018,11.1858016 Z M9.979,0.744904891 L9.979,10.1667799 L5.027,10.1667799 C5.194,5.35190217 7.647,1.33797554 9.979,0.744904891 L9.979,0.744904891 Z M4.028,10.1667799 L0,10.1667799 C0.201,4.94225543 4.071,0.687839674 9.063,0 C6.57,1.16983696 4.182,5.17764946 4.028,10.1667799 L4.028,10.1667799 Z M7.963,20.9694293 C3.564,19.8648098 0.265,15.9436141 0.008,11.1858016 L4.018,11.1858016 C4.084,15.5625 5.995,19.2279212 7.963,20.9694293 L7.963,20.9694293 Z M10.979,21 L10.979,11.1858016 L15.876,11.1858016 C15.79,16.2839674 13.453,20.5699728 10.979,21 L10.979,21 Z M20.949,11.1858016 C20.697,15.8468071 17.527,19.7058424 13.262,20.8991168 C15.186,19.1300951 16.811,15.5033967 16.876,11.1858016 L20.949,11.1858016 L20.949,11.1858016 Z"></path>
  </g>
</svg>
