<svg width="23px" height="18px" viewBox="0 0 23 18" version="1.1" xmlns="http://www.w3.org/2000/svg" xmlns:xlink="http://www.w3.org/1999/xlink">
  <g>
    <path d="M21.3295952,9.559 C21.0415952,4.794 16.9845952,0 12.0265952,0 C7.08559523,0 3.04059523,4.767 2.72559523,9.508 C1.69059523,10.126 0.984595229,11.278 0.984595229,12.614 L0.984595229,14.408 C0.984595229,16.389 2.51959523,17.995 4.41259523,17.995 L7.96559523,17.995 L7.96559523,9.026 L4.75359523,9.026 C5.29559523,5.638 8.34559523,2.032 12.0265952,2.032 C15.7075952,2.032 18.7575952,5.638 19.2995952,9.026 L16.0005952,9.026 L16.0005952,17.995 L19.5535952,17.995 C21.4465952,17.995 22.9815952,16.389 22.9815952,14.408 L22.9815952,12.614 C22.9815952,11.316 22.3165952,10.189 21.3295952,9.559 L21.3295952,9.559 Z"></path>
  </g>
</svg>
