<svg width="12px" height="12px" viewBox="0 0 12 12" version="1.1" xmlns="http://www.w3.org/2000/svg" xmlns:xlink="http://www.w3.org/1999/xlink">
  <g>
    <path d="M9.913,12 C9.913,6.534 5.466,2.087 0.001,2.087 L0.001,0 C6.617,0 12,5.383 12,12 L9.913,12 L9.913,12 Z M1.566,8.869 C2.43,8.869 3.131,9.57 3.131,10.434 C3.131,11.299 2.43,12 1.566,12 C0.701,12 0,11.299 0,10.434 C0,9.57 0.701,8.869 1.566,8.869 L1.566,8.869 Z M0.001,4.174 C4.315,4.174 7.827,7.685 7.827,12 L5.74,12 C5.74,8.835 3.165,6.261 0.001,6.261 L0.001,4.174 L0.001,4.174 Z"></path>
  </g>
</svg>
