<svg width="20px" height="16px" viewBox="0 0 20 16" version="1.1" xmlns="http://www.w3.org/2000/svg" xmlns:xlink="http://www.w3.org/1999/xlink">
  <g>
    <path d="M19.9990226,1.91796289 C19.9863161,1.93333734 19.9716548,1.94678998 19.9599257,1.96120353 C19.4262535,2.72608252 18.7831102,3.38430124 18.0226762,3.9348988 C17.9718503,3.97237403 17.9532792,4.00888836 17.9571889,4.06942526 C17.9972632,5.13122335 17.8897468,6.17764699 17.6248656,7.20773527 C17.0520966,9.43703081 15.9544522,11.3751727 14.2547161,12.9635457 C12.2695729,14.818089 9.88075457,15.7799532 7.15668068,15.9682902 C7.02570619,15.9778992 6.89179943,15.9894301 6.7588701,16 L5.82738735,16 C5.80197439,15.9951955 5.77656143,15.9884692 5.75212589,15.9855865 C5.27709901,15.9365804 4.79913987,15.9125578 4.32997752,15.8376074 C2.86189033,15.6012252 1.4915453,15.0919464 0.21894243,14.3357156 C0.144658391,14.291514 0.0723291956,14.2453907 0,14.2011891 C1.08298309,14.3011231 2.14446291,14.2213681 3.18737171,13.934058 C4.22832568,13.6496307 5.17544717,13.1768663 6.04339752,12.5157648 C3.8305151,12.4331271 2.54031864,10.845715 2.22949858,9.70416191 C2.83549995,9.81466579 3.43368195,9.79736953 4.02306715,9.63978139 C1.68800704,9.1093628 0.691037044,7.02035914 0.793666308,5.63185394 C1.35568371,5.92877305 1.94897859,6.09789202 2.5882123,6.11422737 C1.72123937,5.49636658 1.14456065,4.68728605 0.910956896,3.66008048 C0.679307986,2.63383581 0.835695435,1.66044081 1.36350308,0.741817308 C3.58909198,3.31799892 6.40015639,4.7305267 9.82992865,4.96402618 C9.82504154,4.92078554 9.8230867,4.89484115 9.81722217,4.86985767 C9.71361548,4.38075791 9.70384127,3.88877545 9.78398983,3.39583208 C10.0518033,1.71905591 11.3850064,0.372830461 13.083765,0.0672632274 C13.227446,0.0403579365 13.3701495,0.023061678 13.5118757,0 L14.1638159,0 C14.2107321,0.00768722599 14.2605806,0.0163353552 14.3094517,0.0221007747 C15.2751442,0.140291874 16.1039977,0.536184013 16.7872153,1.21938622 C16.8302219,1.26262687 16.8702962,1.26839229 16.9250318,1.25686145 C17.7841853,1.07813345 18.5974001,0.775448922 19.357834,0.34592517 C19.3812922,0.333433427 19.4067051,0.321902588 19.4526439,0.297880007 C19.1232529,1.25782235 18.5319128,1.98330431 17.6639625,2.52333193 C18.2640993,2.45030329 18.8231844,2.32346406 19.3705405,2.13416612 C19.5816636,2.06113747 19.7898544,1.97753889 20,1.89970572 C19.9990226,1.90547114 19.9990226,1.91315837 19.9990226,1.91796289 L19.9990226,1.91796289 Z"></path>
  </g>
</svg>
