<svg width="14px" height="13px" viewBox="0 0 14 13" version="1.1" xmlns="http://www.w3.org/2000/svg" xmlns:xlink="http://www.w3.org/1999/xlink">
  <g>
    <path d="M6.99994579,0 C6.54194579,0 6.13494579,0.308 5.99394579,0.763 L4.82794579,4.024 L1.05894579,4.024 C0.599945789,4.024 0.192945789,4.332 0.0519457893,4.787 C-0.0900542107,5.241 0.0659457893,5.24 0.435945789,5.521 L3.48694579,7.834 L2.32094579,11.575 C2.17894579,12.029 2.33494579,12.527 2.70494579,12.809 C2.89094579,12.949 3.10994579,13.02 3.32694579,13.02 C3.54594579,13.02 3.76494579,12.949 3.94994579,12.809 L6.99994579,10.496 L10.0499458,12.809 C10.2349458,12.949 10.4539458,13.02 10.6719458,13.02 C10.8899458,13.02 11.1089458,12.949 11.2939458,12.809 C11.6649458,12.527 11.8209458,12.029 11.6789458,11.574 L10.5129458,7.834 L13.5649458,5.522 C13.9349458,5.241 14.0909458,5.243 13.9489458,4.788 C13.8059458,4.332 13.3999458,4.024 12.9419458,4.024 L9.17094579,4.024 L8.00594579,0.763 C7.86394579,0.308 7.45794579,0 6.99994579,0 L6.99994579,0 L6.99994579,0 Z"></path>
  </g>
</svg>
